<?xml version="1.0" standalone="no"?><!DOCTYPE svg PUBLIC "-//W3C//DTD SVG 1.1//EN" "http://www.w3.org/Graphics/SVG/1.1/DTD/svg11.dtd"><svg t="1677742779247" class="icon" viewBox="0 0 1024 1024" version="1.1" xmlns="http://www.w3.org/2000/svg" p-id="3955" xmlns:xlink="http://www.w3.org/1999/xlink" width="200" height="200"><path d="M908.65 256.38c-2.81-27.59-23.15-50.2-50.29-55.9a1187.653 1187.653 0 0 1-162.65-37.44A604.025 604.025 0 0 1 550.39 78.1c-23.19-16.7-54.47-16.7-77.67 0a381.187 381.187 0 0 1-146.42 84.39 545.725 545.725 0 0 1-158.17 39.09c-27.74 4.48-48.52 27.83-49.74 55.9s-1.69 140.29-1.69 263.77c0 223.54 263.77 439.86 395.7 439.86 131.88 0 355.46-152.59 391.22-436.48 8.95-167.68 5.03-268.29 5.03-268.29v0.04zM765.02 429.05L489.47 688.93c-12.4 11.82-31.35 13.68-45.81 4.48l-7.23-6.17-152.04-158.12c-14.2-15.43-13.21-39.45 2.22-53.65 15.43-14.2 39.45-13.2 53.65 2.22l125.2 131.34L713.6 374.29c15.44-14.2 39.47-13.2 53.67 2.24 14.2 15.44 13.2 39.47-2.24 53.67v-1.15h-0.01z" p-id="3956" fill="#889aa4"></path></svg>