<svg t="1671074798226" class="icon" viewBox="0 0 1024 1024" version="1.1" xmlns="http://www.w3.org/2000/svg" p-id="3671" width="200" height="200"><path d="M384 250V134a70 70 0 0 0-70-70H134a70 70 0 0 0-70 70v116a70 70 0 0 0 70 70h180a70 70 0 0 0 70-70z m-80-10H144v-96h160zM890 704H710a70 70 0 0 0-70 70v116a70 70 0 0 0 70 70h180a70 70 0 0 0 70-70V774a70 70 0 0 0-70-70z m-10 176H720v-96h160zM890 384H710a70 70 0 0 0-70 70v116a70 70 0 0 0 70 70h180a70 70 0 0 0 70-70V454a70 70 0 0 0-70-70z m-10 176H720v-96h160zM536 504H264v-80a40 40 0 0 0-40-40 40 40 0 0 0-40 40v432a40 40 0 0 0 40 40h312a40 40 0 0 0 40-40 40 40 0 0 0-40-40H264V584h272a40 40 0 0 0 40-40 40 40 0 0 0-40-40z" fill="#999999" p-id="3672"></path></svg>