<svg t="1669167977978" class="icon" viewBox="0 0 1024 1024" version="1.1" xmlns="http://www.w3.org/2000/svg" p-id="17684" width="200" height="200"><path d="M577.024 608.256c2.56 2.56 5.12 4.608 7.168 7.168 6.656 6.656 13.312 12.8 20.48 19.456 54.272-9.216 120.32-85.504 120.32-85.504l-76.288-76.8-104.448 103.936c7.168 6.656 14.336 13.312 21.504 20.48l11.264 11.264zM407.552 446.464l-106.496 104.96s67.072 76.288 122.368 85.504c130.048-124.416 217.6-200.192 259.584-248.832 38.4-44.544 42.496-62.976 45.568-70.144 12.8-25.6 22.528-66.56 23.04-85.504 0-11.264-7.68-7.68-7.68-7.68s-47.616-0.512-99.328 15.36C596.992 254.976 552.96 302.08 552.96 302.08L407.552 446.464c-13.312-12.8-24.576-24.064-34.816-34.816 9.728 10.24 21.504 22.016 34.816 34.816zM349.184 386.048c2.048 2.56 4.608 5.12 6.656 7.68 1.024 1.024 2.048 2.048 3.072 3.584 1.024 1.024 2.048 2.56 3.584 3.584 3.072 3.584 6.656 6.656 9.728 10.24l116.224-99.328-11.776-11.776s-43.52-47.616-90.112-62.464c-50.688-16.384-97.792-15.36-97.792-15.36s-7.68-3.072-7.168 8.192c0.512 18.944 10.24 59.904 22.528 85.504 3.072 6.656 7.168 25.6 45.056 70.144z m443.904 171.008c37.376-88.064-47.616-58.368-82.944-46.592 7.68 9.728 15.872 16.384 30.208 31.232-62.464 89.6-142.848 100.864-142.848 100.864s-14.336-14.848-22.528-23.552c-28.672 40.448-26.624 78.336 7.68 77.824 121.344-2.56 207.872-134.144 210.432-139.776z m29.184 121.344c-8.704-1.024-16.384-3.584-22.016-6.656-22.528-27.136-44.544-52.224-44.544-52.224s-35.328 38.4-75.264 54.272c15.872 18.432 30.208 32.256 43.52 43.008 0.512 0.512 0.512 1.024 1.024 1.536 11.264 12.8 16.896 23.552 19.456 32.768-1.024 5.12 0 11.264 2.048 17.408 0.512 4.096 1.024 8.704 4.608 9.728 13.824 21.504 46.08 36.864 86.528-3.584 31.232-30.72 31.232-101.376-15.36-96.256z m-391.68-33.792s-81.92-11.776-144.896-100.864c14.336-14.848 23.04-21.504 30.72-31.232-35.84-11.776-122.368-41.472-83.968 46.592 2.048 5.12 90.112 137.216 214.016 139.776 34.816 1.024 36.864-37.376 7.68-77.824-9.216 8.704-23.552 23.552-23.552 23.552z m-160.256-23.04s-22.016 25.088-45.056 52.224c-6.144 3.072-13.312 6.144-22.528 6.656-47.616-5.12-47.616 65.536-16.384 96.256 40.96 39.936 73.728 25.088 88.064 3.584 3.072-3.072 4.096-8.192 5.12-9.728 2.56-6.144 3.072-12.288 2.048-17.408 2.56-9.216 8.192-20.48 19.968-32.768 0.512-0.512 0.512-1.024 1.024-1.536 13.312-11.264 28.16-24.576 44.032-43.008-40.96-15.872-76.288-54.272-76.288-54.272z" fill="#bfcbd9" p-id="17685"></path></svg>