<svg t="1669168111478" class="icon" viewBox="0 0 1024 1024" version="1.1" xmlns="http://www.w3.org/2000/svg" p-id="22077" width="200" height="200"><path d="M715.715 224.04m-105.88 0a105.88 105.88 0 1 0 211.76 0 105.88 105.88 0 1 0-211.76 0Z" fill="#bfcbd9" p-id="22078"></path><path d="M649.946 323.97c-55.101-36.265-70.427-110.598-34.162-165.698 22.203-33.735 59.598-53.875 100.03-53.875 23.368 0 46.076 6.817 65.672 19.713 26.692 17.568 44.945 44.478 51.397 75.774 6.452 31.296 0.33 63.232-17.237 89.924-22.203 33.734-59.597 53.875-100.028 53.875-23.369 0-46.076-6.817-65.672-19.713z m-11.189-150.58c-27.928 42.434-16.126 99.678 26.308 127.607 15.094 9.934 32.575 15.184 50.553 15.184 31.15 0 59.956-15.511 77.055-41.492 13.53-20.556 18.244-45.15 13.275-69.252-4.969-24.101-19.027-44.826-39.582-58.354-15.094-9.934-32.575-15.184-50.553-15.184-31.149-0.001-59.956 15.51-77.056 41.491z" fill="#bfcbd9" p-id="22079"></path><path d="M536.04 491.473c-17.024 17.831-45.868 17.923-64.424 0.206-18.556-17.717-19.798-46.534-2.774-64.365l90.825-95.126c17.024-17.831 45.868-17.923 64.424-0.206 18.556 17.717 19.798 46.534 2.773 64.365l-90.824 95.126z" fill="#bfcbd9" p-id="22080"></path><path d="M504.256 519.906c-15.991 0-31.261-6.172-42.999-17.378-11.791-11.258-18.666-26.295-19.357-42.343-0.701-16.273 5.014-31.625 16.093-43.229l90.825-95.126c11.128-11.656 26.269-18.075 42.633-18.075 15.99 0 31.261 6.172 42.998 17.378 11.791 11.258 18.666 26.296 19.357 42.343 0.701 16.273-5.015 31.625-16.094 43.229l-90.824 95.126c-11.127 11.656-26.269 18.075-42.632 18.075z m87.195-186.151c-8.087 0-15.521 3.122-20.936 8.792l-90.824 95.126c-5.389 5.644-8.166 13.18-7.819 21.221 0.356 8.267 3.943 16.057 10.102 21.937 6.13 5.854 14.043 9.077 22.282 9.077 8.087 0 15.521-3.123 20.936-8.792l90.824-95.126c5.389-5.644 8.165-13.18 7.818-21.221-0.355-8.267-3.943-16.057-10.102-21.937-6.13-5.854-14.044-9.077-22.281-9.077z" fill="#bfcbd9" p-id="22081"></path><path d="M167.24 823.116h194.99v76.496H167.24z" fill="#bfcbd9" p-id="22082"></path><path d="M377.231 914.612h-224.99V808.116h224.99v106.496z m-194.99-30h164.99v-46.496h-164.99v46.496z" fill="#bfcbd9" p-id="22083"></path><path d="M378.25 829.626h472v70h-472z" fill="#bfcbd9" p-id="22084"></path><path d="M374.354 884.585h478v30h-478zM694.227 398.66c-44.223 0-82.592-9.252-84.781-9.79-8.045-1.976-12.966-10.099-10.99-18.145 1.975-8.042 10.091-12.962 18.137-10.992 0.672 0.165 67.854 16.295 121.988 4.736 37.224-7.948 103.015-77.099 125.225-103.073 5.385-6.297 14.852-7.036 21.148-1.652 6.297 5.384 7.036 14.852 1.652 21.148-0.869 1.017-21.614 25.208-48.952 51.107-37.97 35.971-69.195 56.766-92.81 61.809-16.626 3.55-34.036 4.852-50.617 4.852zM242.26 663.447c-8.163 0-14.85-6.545-14.992-14.738-0.145-8.283 6.453-15.115 14.736-15.26 8.668-0.15 17.406-0.143 25.855-0.139 42.942 0.023 83.512 0.059 115.271-19.66 31.537-19.58 70.419-89.426 82.741-114.686 3.631-7.444 12.61-10.538 20.056-6.909 7.445 3.63 10.54 12.606 6.912 20.053-1.961 4.024-48.548 98.881-93.884 127.028-39.039 24.238-85.854 24.197-131.117 24.174-8.313-0.006-16.915-0.012-25.311 0.135l-0.267 0.002z" fill="#bfcbd9" p-id="22085"></path></svg>