<svg t="1668239439474" class="icon" viewBox="0 0 1024 1024" version="1.1" xmlns="http://www.w3.org/2000/svg" p-id="2246" width="200" height="200"><path d="M512 320C403.2 320 320 403.2 320 512s83.2 192 192 192 192-89.6 192-192c0-108.8-83.2-192-192-192z m0 320c-70.4 0-128-57.6-128-128s57.6-128 128-128 128 57.6 128 128-57.6 128-128 128z m390.4-256c-19.2 0-32-12.8-38.4-25.6-12.8-25.6-25.6-51.2-44.8-76.8-12.8-12.8-12.8-32 0-44.8l57.6-108.8-224-128-57.6 102.4c-6.4 19.2-19.2 25.6-38.4 25.6H467.2h-6.4c-12.8 0-25.6-6.4-32-25.6L364.8 0 147.2 128l57.6 102.4c6.4 12.8 6.4 32 0 44.8-19.2 32-32 57.6-44.8 83.2-6.4 12.8-19.2 25.6-38.4 25.6H0v256h121.6c19.2 0 32 12.8 38.4 25.6 12.8 25.6 25.6 51.2 44.8 76.8 12.8 12.8 12.8 32 0 44.8L147.2 896l224 128 57.6-102.4c6.4-19.2 19.2-25.6 38.4-25.6h102.4c12.8 0 32 6.4 38.4 19.2l57.6 102.4 224-128-57.6-108.8c-6.4-12.8-6.4-32 0-44.8 19.2-25.6 32-44.8 44.8-76.8 6.4-12.8 25.6-25.6 38.4-25.6H1024V384h-121.6z m57.6 192h-57.6c-44.8 0-83.2 25.6-96 64-6.4 19.2-19.2 44.8-38.4 64-25.6 32-25.6 83.2-6.4 115.2l25.6 51.2-108.8 64-25.6-51.2c-19.2-32-57.6-51.2-96-51.2H467.2c-38.4 0-76.8 19.2-96 51.2l-25.6 51.2-108.8-64 25.6-51.2c19.2-32 19.2-83.2-6.4-115.2-12.8-19.2-25.6-38.4-38.4-64-12.8-38.4-51.2-64-96-64H64V448h57.6c44.8 0 83.2-25.6 96-64 12.8-25.6 25.6-44.8 38.4-64 25.6-32 25.6-83.2 6.4-115.2l-32-51.2 108.8-64 25.6 51.2c25.6 32 64 51.2 102.4 51.2h89.6c38.4 0 76.8-19.2 96-51.2l25.6-51.2 108.8 64-25.6 51.2c-19.2 32-19.2 83.2 6.4 115.2 12.8 19.2 25.6 38.4 38.4 64 19.2 38.4 57.6 64 96 64h57.6v128z" fill="#8686A0" p-id="2247"></path></svg>