<svg t="1671160076894" class="icon" viewBox="0 0 1024 1024" version="1.1" xmlns="http://www.w3.org/2000/svg" p-id="3804" width="200" height="200"><path d="M587.775555 337.40818A102.399744 102.399744 0 0 0 440.319923 484.863812h2.559994a102.399744 102.399744 0 0 0 147.455631-147.455632z" fill="#27A3FF" p-id="3805"></path><path d="M910.334748 0.001024H113.66474A113.151717 113.151717 0 0 0 0.001024 113.66474v796.670008A113.151717 113.151717 0 0 0 113.66474 1023.998464h796.670008A113.151717 113.151717 0 0 0 1023.998464 910.334748V113.66474A113.151717 113.151717 0 0 0 910.334748 0.001024zM212.480493 706.559258h-39.9359v-19.96795a177.151557 177.151557 0 0 1 111.615721-166.911583 97.791756 97.791756 0 0 1-31.743921-73.727816 96.767758 96.767758 0 0 1 83.455791-97.279757l5.631986 39.9359a59.90385 59.90385 0 0 0-51.199872 59.391852 58.879853 58.879853 0 0 0 59.391852 59.90385v39.423902a138.239654 138.239654 0 0 0-139.263652 139.263652 66.047835 66.047835 0 0 0 2.047995 19.96795z m519.678701 44.03189h-39.935901a64.511839 64.511839 0 0 0 0-19.967951c0-146.431634-173.055567-249.855375-327.67918-118.783703a88.06378 88.06378 0 0 0-30.207925 66.047835v72.703819h-37.887905v-19.967951a219.647451 219.647451 0 0 1 139.263652-204.799488A143.87164 143.87164 0 0 1 409.6 315.904234a54.783863 54.783863 0 0 1 15.87196-14.847963 142.335644 142.335644 0 0 1 229.375427 111.615721 140.287649 140.287649 0 0 1-59.391852 113.151717 215.039462 215.039462 0 0 1 137.215657 204.799488z m119.295701-57.343857h-39.9359a68.09583 68.09583 0 0 0 0-19.96795 138.239654 138.239654 0 0 0-139.263652-139.263652v-39.9359a58.879853 58.879853 0 0 0 59.903851-59.90385 59.90385 59.90385 0 0 0-51.199872-59.391852l5.631986-39.9359a99.327752 99.327752 0 0 1 51.199872 171.007572 177.663556 177.663556 0 0 1 111.61572 167.423582c4.09599 5.631986 2.047995 13.823965 2.047995 19.96795z" fill="#27A3FF" p-id="3806"></path></svg>