<svg t="1669167555423" class="icon" viewBox="0 0 1024 1024" version="1.1" xmlns="http://www.w3.org/2000/svg" p-id="4985" width="200" height="200"><path d="M908.3 473.5s-149.2 31.8-190.5 42.9c-40.9 11.1-91.6-69.3-105.2-72.2-8.7 25.2-36.8 99.2-53.6 149.4 26-0.8 160.9 40.1 165.8 63.9 5.6 24.1 68.6 285.1 68.6 285.1s26.7 56.1-49.1 76.6c-75.9 20.5-79.3-41.9-79.3-41.9S612 777.1 607.3 765c-4.4-12.1-103.2-32.4-125.8-26.3-22.8 6.2-71.6 177.1-119.8 188.7-61.9 15-243.2-95.1-243.2-95.1s-71.6-17.7-57-84.9c14.9-66.7 84.4-48.5 84.4-48.5s128.4 70.6 143.2 62.3c15-8.4 23.5-57.1 45.4-104.3 0.9-17.8 51.3-159.3 51.3-159.3s27.9-94.2 16.8-100.1c-15.3-8.1-31.3 9.2-39.7 23.6-8.4 14.3-41.7 73.2-97.4 149.9-49.5 68.3-137.8 4.9-101.1-58.9 30.5-53.1 111.7-204.9 170.1-233.5 58.8-28.8 160.2-44.8 246.5-24.6 86.7 19.8 147.5 118 164.5 131 16.6 12.5 133.4-25.3 133.4-25.3s66.5-23.1 83 37.6c16.6 61.1-53.6 76.2-53.6 76.2zM635.1 223.3c-61.2 16.6-123.5-18.9-139.9-79.5-16.3-60.3 19.4-122.7 80.6-139.3C636.9-12 699.4 23.8 715.7 84.1c16.5 60.6-19.6 122.6-80.6 139.2z" p-id="4986"></path></svg>