<svg t="1669167525040" class="icon" viewBox="0 0 1088 1024" version="1.1" xmlns="http://www.w3.org/2000/svg" p-id="3700" width="200" height="200"><path d="M261.570761 73.301541m-73.301541 0a73.301541 73.301541 0 1 0 146.603081 0 73.301541 73.301541 0 1 0-146.603081 0Z" p-id="3701"></path><path d="M923.513679 152.518644H328.270876c-13.288583 0.685862-18.861215 7.887417-21.604665 17.403758L87.447452 167.864815c-44.323856 8.058883-30.692341 66.614382 0 67.728908h90.533833c5.658365 0 10.287936 4.629571 10.287935 10.287936v281.375036L65.842787 977.696806c-4.629571 41.751872 52.554204 64.556795 75.359128 24.090915l117.196732-416.918587c6.258494-18.003887 37.72243-26.148503 52.297006 0l109.566513 407.573713c23.233588 53.582998 95.849266 34.03592 84.103873-21.947596l-121.397639-440.666572 3.943708-238.765837c0.085733-4.801037 5.744097-7.287288 9.344875-4.200907l91.305428 79.217104c5.744097 4.972502 14.317377 4.715304 19.804276-0.514397l134.086093-129.885186c5.143968-6.515692 4.029441-19.032681 0-26.834365l62.842139-0.685862c9.773539-0.685862 14.831774-12.345523 13.288584-32.406997l205.844443-2.057587c10.202203 0.428664 15.088972-19.032681 0.085733-21.176001z m-346.617695 62.756407l-76.302188 72.872876c-2.486251 2.400518-6.515692 2.400518-9.087676 0.085733l-78.18831-72.958609c-1.971854-1.800389-0.685862-5.143968 2.057587-5.143968h159.463c2.657717 0 3.943709 3.257846 2.057587 5.143968z" p-id="3702"></path></svg>