<svg t="1668239484590" class="icon" viewBox="0 0 1024 1024" version="1.1" xmlns="http://www.w3.org/2000/svg" p-id="5075" width="200" height="200"><path d="M512 1024C230.4 1024 0 793.6 0 512S230.4 0 512 0s512 230.4 512 512-230.4 512-512 512z m0-960C265.6 64 64 265.6 64 512s201.6 448 448 448 448-201.6 448-448S758.4 64 512 64z" p-id="5076"></path><path d="M416 288v512c0 19.2-12.8 32-32 32s-32-12.8-32-32V288c0-19.2 12.8-32 32-32s32 12.8 32 32z" p-id="5077"></path><path d="M544 640h-192V256h192c105.6 0 192 86.4 192 192s-86.4 192-192 192z m-128-64h128c70.4 0 128-57.6 128-128s-57.6-128-128-128h-128v256z" p-id="5078"></path></svg>