<svg t="1669167748028" class="icon" viewBox="0 0 1096 1024" version="1.1" xmlns="http://www.w3.org/2000/svg" p-id="17238" width="200" height="200"><path d="M587.655025 159.815989m-77.829279 0a77.829279 77.829279 0 1 0 155.658559 0 77.829279 77.829279 0 1 0-155.658559 0Z" p-id="17239"></path><path d="M341.486116 65.747314m-65.747314 0a65.747314 65.747314 0 1 0 131.494628 0 65.747314 65.747314 0 1 0-131.494628 0Z" p-id="17240"></path><path d="M266.761294 119.349121c18.191028 25.607231 39.304966 41.165825 66.010557 37.498572v108.265665h639.554433c35.782951 3.040915 28.25782 64.431097 0 66.546121H650.061871c-8.959354 0-16.802192 6.027367-19.089687 14.696245l-63.8683 241.067433a23.982383 23.982383 0 0 0 2.23303 17.809779l125.467261 224.973275c8.033463 35.928188-10.82929 64.957584-44.624298 64.957584H395.623488c-34.85706 3.694485-52.28559-80.271089 0-94.531621h168.248856c3.385855 0 5.509957-3.658176 3.821568-6.59924l-81.768853-142.332995c-16.439098-13.679581-32.442482-12.308899-48.055541 2.115025L71.879466 1020.322426c-41.193057 18.481504-85.554112-37.498572-66.010558-61.263099l369.158051-369.684537 66.645973-242.90106c2.341959-8.52364-4.075734-16.938353-12.917083-16.938353H303.560909c-19.489091 0-35.33816-15.721986-35.483398-35.220154l-1.316217-174.966102z" p-id="17241"></path></svg>